<svg xmlns="http://www.w3.org/2000/svg" width="300px" height="98px" viewBox="0 0 441.02 144.34">
  <path fill="#ff4e00"
    d="M144.34 72.17c0 39.86-32.31 72.17-72.17 72.17S0 112.02 0 72.17 32.31 0 72.17 0s72.17 32.31 72.17 72.17Z" />
  <path fill="#fff"
    d="m46.62 94.23-.92-5.92c-3.52 3.61-8.33 6.85-15.55 6.85-7.96 0-12.96-4.82-12.96-12.31 0-11.01 9.44-15.36 27.86-17.3V63.7c0-5.55-3.33-7.5-8.42-7.5-5.37 0-10.46 1.67-15.27 3.79l-1.11-7.13c5.28-2.13 10.28-3.7 17.13-3.7 10.74 0 15.92 4.35 15.92 14.16v30.91h-6.68Zm-1.57-22.39c-16.29 1.57-19.72 6.01-19.72 10.55 0 3.61 2.41 5.92 6.57 5.92 4.81 0 9.44-2.41 13.14-6.2V71.84Zm27.42-3.7v26.1h-8.24V50.09h6.57l1.39 8.98c3.15-5 8.24-9.53 15.46-9.9l1.3 7.87c-7.31.37-13.52 5.28-16.48 11.1Zm37.28 27.03c-5.83 0-12.31-2.04-16.11-4.17l1.2-7.77c4.17 2.87 9.54 5.09 15.55 5.09 5.65 0 8.98-2.13 8.98-5.83 0-4.07-2.5-5.56-10.46-7.5-10.37-2.59-14.54-5.74-14.54-13.61 0-7.03 5.92-12.21 15.55-12.21 5.46 0 10.37 1.11 14.53 2.96l-1.3 7.77c-3.88-2.22-8.79-3.79-13.42-3.79-5 0-7.59 1.94-7.59 5.09 0 2.96 2.22 4.62 9.16 6.38 10.92 2.78 15.83 5.93 15.83 14.35s-6.02 13.24-17.4 13.24h.02Zm64.37-1.1c-11.87 0-19.4-8.81-19.4-21.85s7.65-21.97 19.52-21.97 19.4 8.81 19.4 21.85-7.59 21.97-19.52 21.97Zm.06-38.56c-8.38 0-13.53 6.49-13.53 16.65s5.2 16.65 13.53 16.65 13.53-6.49 13.53-16.65-5.2-16.65-13.53-16.65Zm38.6 38.13c-2.88 0-5.51-.55-7.34-1.29v11.51l-5.45.8V64.08h4.35l.67 4.22c2.2-2.57 5.2-4.83 9.49-4.83 6.3 0 11.51 4.65 11.51 14.38 0 10.65-6.12 15.79-13.22 15.79h-.01Zm.86-25.34c-3.3 0-5.88 2.02-8.2 5.14v14.02c2.2 1.1 3.98 1.59 7.1 1.59 4.59 0 7.96-3.73 7.96-10.96 0-6.37-2.88-9.79-6.85-9.79h-.01Zm29.75 25.59c-7.59 0-13.53-4.59-13.53-15.3 0-9.36 5.51-15.12 12.85-15.12 8.51 0 12.42 6.55 12.42 14.63v1.16H235.3c.18 6.79 3.43 9.98 8.51 9.98 4.22 0 7.28-1.65 10.47-4.16l.8 4.9c-3.12 2.45-6.86 3.92-11.69 3.92Zm-7.83-18.74h14.08c-.67-4.71-2.75-7.41-6.98-7.41-3.37 0-6.24 2.45-7.1 7.41Zm43.46 18.12V73.38c0-3-1.29-5.02-4.47-5.02-2.88 0-5.81 1.9-8.45 4.71v20.2h-5.45V64.08H265l.67 4.22c2.75-2.51 6.18-4.83 10.34-4.83 5.51 0 8.45 3.3 8.45 8.57v21.24h-5.44Zm18.97-36.98V69.2h12.73l.86 5.26h-13.59v18.79h-5.75v-42.2h21.97v5.26h-16.22Zm31.91 37.58c-7.77 0-13.4-5.57-13.4-15.18s5.63-15.24 13.4-15.24 13.59 5.63 13.59 15.24-5.75 15.18-13.59 15.18Zm0-25.83c-5.26 0-7.9 4.53-7.9 10.65s2.75 10.65 7.9 10.65 8.08-4.53 8.08-10.65-2.82-10.65-8.08-10.65ZM354.27 76v17.26h-5.45V64.07h4.35l.92 5.94c2.08-3.3 5.45-6.3 10.22-6.55l.86 5.2c-4.83.24-8.94 3.49-10.89 7.34Zm34.13 17.26-.67-4.22c-2.75 2.57-6.24 4.83-10.34 4.83-5.57 0-8.45-3.3-8.45-8.57V64.06h5.45v19.89c0 3 1.29 5.02 4.47 5.02 2.88 0 5.81-1.9 8.45-4.71v-20.2h5.45v29.19h-4.36Zm47.17 0V73.37c0-3-1.1-5.02-4.28-5.02-2.88 0-5.63 1.9-8.26 4.71v20.2h-5.45V73.37c0-3-1.1-5.02-4.28-5.02-2.88 0-5.63 1.9-8.26 4.71v20.2h-5.45V64.07h4.35l.67 4.22c2.75-2.51 6.06-4.83 10.16-4.83s6.61 1.84 7.71 4.83c2.63-2.51 6.18-4.83 10.28-4.83 5.57 0 8.26 3.3 8.26 8.57v21.24h-5.45Z" />
</svg>
