<?xml version="1.0" encoding="UTF-8"?>
<svg id="Layer_1" data-name="Layer 1" xmlns="http://www.w3.org/2000/svg" version="1.1" viewBox="0 0 128 128">
  <defs>
    <style>
      .cls-1 {
        fill: #ef4137;
        stroke-width: 0px;
      }
    </style>
  </defs>
  <path class="cls-1" d="M99.9,68.9c-2.6,19.7-20.9,33.5-40.6,30.9-9.4-1.2-18-6.2-23.8-13.8l-28.2,7.7c16.4,31.3,55.1,43.3,86.4,26.9,22-11.4,35.4-34.6,34.3-59.3l-28.1,7.6Z"/>
  <path class="cls-1" d="M60.7.1C25.3,2-1.7,32.1.1,67.4c.5,9.1,2.9,18.1,7.2,26.2l22.4-18.3c-6.4-18.8,3.7-39.2,22.5-45.6,9.9-3.3,20.9-2.2,29.8,3l22.4-18.3C92.2,4.4,76.6-.7,60.7.1Z"/>
</svg>