<svg xmlns="http://www.w3.org/2000/svg" fill="none" viewBox="0 0 388 76">
	<g filter="url(#a)">
		<path
				fill="#000"
				d="m31.8159 13.9718 3.9331-.0823c9.1421-6.7375 22.1644-1.0524 26.5267 8.7599 3.0219 6.8022 1.0524 13.5514-3.7156 18.9426l-.0706.0764-23.0344 22.8169c-1.3346 1.0289-2.6045.3881-3.116.0412l-20.036-20.0361-.0412-.0353c-2.4222-2.1165-4.85616-5.5323-6.20836-8.4483-3.02188-6.5141-2.06358-12.6284 2.61033-18.0548 2.64563-3.0689 5.91443-5.6087 9.91813-6.5611l.0999-.0236.1-.0176c2.4692-.4174 4.9913-.341 7.4312.2175l.0705.0177.0706.0176c1.9225.535 3.7568 1.3287 5.4558 2.3693h.0059Z"
		/>
		<path
				fill="#E43F5A"
				fill-rule="evenodd"
				d="M40.0702 32.7732c.4527 3.1689 2.3399 8.0074 9.7652 7.1667 0 0-4.7915 2.822-8.8128.1823-.7701.5408-2.3458 1.8401-3.6627 4.0918v-.0823c-.0529.6526-1.0523-2.869-1.3757-4.0389-2.775 2.8925-6.5552 4.6798-10.7235 4.6798-1.1524 0-2.3047-.1411-3.4276-.4116h.1352c8.5189 0 15.4269-6.7492 15.4269-15.0682 0-7.4371-5.1501-12.7812-11.8817-14.6626-2.0342-.4644-4.1448-.5232-6.2025-.1763-3.1924.7584-5.8792 2.7396-8.2308 5.4617-3.88612 4.5093-4.6798 9.4007-2.18705 14.7742 1.14645 2.4752 3.35115 5.5852 5.42645 7.4078l.1176.1058 19.4305 19.4305 2.7867-2.7573 19.5423-19.3541c3.9449-4.4681 5.7145-9.9357 3.1982-15.5915-3.6509-8.2072-14.9977-13.3868-22.5347-6.9197h-.1058c1.0935 1.3228 1.9812 2.8102 2.6279 4.4035 1.4522 3.6156 1.6874 7.6076.6761 11.3643l.0118-.0059Z"
				clip-rule="evenodd"
		/>
		<path
				fill="#000"
				d="M28.1414 44.4904c-4.28 1.0465-8.6893-.7408-12.2109-2.1753-9.73587-8.8481-8.10147-17.0377-5.2148-21.9585-3.61568 4.4034-4.24475 9.1009-1.81667 14.3333 1.01122 2.1812 2.84547 4.862 4.69747 6.714.0117.0117.0117.0058.0176.0117.241.2411.4821.4704.7231.682l.1176.1 7.4842 7.4841.2469.2469 11.5642 11.5643h.2822l.3234-.3234-6.2084-16.6791h-.0059Z"
				opacity=".2"
		/>
		<path
				fill="#000"
				fill-rule="evenodd"
				d="M40.0702 32.7733c.4409 3.1041 2.2635 7.8074 9.3067 7.2078.147-.0588.2293-.0941.2293-.0941-9.0539-2.0694-7.1314-8.8422-7.1314-8.8422.7349-10.118-2.0695-14.3216-3.2629-15.6326-.8408.435-1.6286.97-2.3458 1.5873h-.1058c1.0935 1.3228 1.9812 2.8103 2.6279 4.4035 1.4522 3.6157 1.6932 7.6017.682 11.3644v.0059Z"
				clip-rule="evenodd"
				opacity=".2"
		/>
		<path
				fill="#fff"
				fill-rule="evenodd"
				d="M21.2981 15.2593c-10.6588 2.6633-14.65078 16.1618-9.7652 17.855 2.5633.8877-1.57563-9.0715 9.7652-17.855Z"
				clip-rule="evenodd"
				opacity=".3"
		/>
	</g>
	<g fill="#fff" filter="url(#b)">
		<path
				d="M79.4487 40.8982h8.854c0 2.5045 2.6162 4.5093 5.9026 4.5093 2.9513 0 5.4029-1.558 5.4029-3.7333 0-6.0143-19.5481-3.3981-19.5481-16.4263 0-7.2372 6.0731-11.917 13.8101-11.917 7.7368 0 14.0338 5.0149 14.0338 11.6936h-8.8543c0-2.2811-2.2811-4.0095-5.2324-4.0095-2.675 0-4.9032 1.3345-4.9032 3.5098 0 6.0732 19.5479 2.7867 19.5479 16.15 0 7.5194-6.29 12.4167-14.3684 12.4167-8.0779 0-14.6449-5.3441-14.6449-12.1992v.0059ZM113.424 24.0192h8.131v2.8396c2.169-2.2282 5.127-3.5098 8.578-3.5098 7.854 0 13.698 6.4024 13.698 14.8683 0 8.466-5.85 14.8684-13.698 14.8684-3.451 0-6.403-1.2817-8.578-3.5099v13.4221h-8.131V24.0192Zm22.053 14.204c0-4.0096-2.951-7.0197-6.961-7.0197s-6.961 3.0101-6.961 7.0197c0 4.0096 2.951 7.0197 6.961 7.0197s6.961-3.0101 6.961-7.0197ZM147.17 38.2232c0-8.466 5.903-14.8683 13.699-14.8683 3.451 0 6.402 1.2816 8.577 3.5098v-2.8396h8.131v28.4021h-8.131v-2.8396c-2.169 2.2282-5.126 3.5098-8.577 3.5098-7.796 0-13.699-6.4024-13.699-14.8683v-.0059Zm22.276 0c0-4.0096-2.951-7.0197-6.96-7.0197-4.01 0-6.908 3.0101-6.908 7.0197 0 4.0096 2.951 7.0197 6.908 7.0197 3.956 0 6.96-3.0101 6.96-7.0197ZM184.038 24.0192h8.131v2.7867c2.229-2.2811 5.127-3.451 8.631-3.451 6.514 0 10.859 4.2858 10.859 10.8058v18.2665h-8.131V36.8886c0-3.451-2.17-5.6792-5.456-5.6792-3.51 0-5.903 2.2811-5.903 5.7909v15.4269h-8.131v-28.408ZM217.791 12.3256h8.13V34.878l9.801-10.8588h10.3L234.27 36.6064l12.14 15.8149h-10.412l-7.349-9.8005-2.728 2.8984v6.908h-8.13V12.3256ZM249.309 13.9953h19.048c5.791 0 10.247 4.1213 10.247 9.8593 0 3.5099-1.728 6.6258-4.174 8.1309 3.622 1.3933 6.126 5.4558 6.126 10.0239 0 6.0731-4.621 10.4119-10.859 10.4119h-20.382v-38.426h-.006Zm8.354 7.7957v7.2372h8.519c2.005 0 3.563-1.5579 3.563-3.6215s-1.506-3.6215-3.563-3.6215h-8.519v.0058Zm0 14.5391v8.2955h9.912c2.34 0 4.121-1.7814 4.121-4.1213 0-2.3399-1.781-4.1742-4.121-4.1742h-9.912ZM283.619 38.2232c0-8.466 5.903-14.8683 13.699-14.8683 3.451 0 6.402 1.2816 8.577 3.5098v-2.8396h8.131v28.4021h-8.131v-2.8396c-2.169 2.2282-5.126 3.5098-8.577 3.5098-7.796 0-13.699-6.4024-13.699-14.8683v-.0059Zm22.276 0c0-4.0096-2.951-7.0197-6.961-7.0197-4.009 0-6.908 3.0101-6.908 7.0197 0 4.0096 2.952 7.0197 6.908 7.0197 3.957 0 6.961-3.0101 6.961-7.0197ZM320.487 24.0192h8.131v2.7867c2.228-2.2811 5.127-3.451 8.631-3.451 6.514 0 10.858 4.2858 10.858 10.8058v18.2665h-8.13V36.8886c0-3.451-2.17-5.6792-5.456-5.6792-3.51 0-5.903 2.2811-5.903 5.7909v15.4269h-8.131v-28.408ZM352.899 37.5001c0-8.078 5.85-14.1452 13.698-14.1452 3.451 0 6.403 1.2228 8.578 3.3393v-2.675h8.131v25.3391c0 8.6305-5.85 14.3098-14.645 14.3098-7.408 0-13.146-3.9567-14.257-10.2473h8.407c.835 1.893 3.175 3.1747 5.962 3.1747 3.898 0 6.402-2.5633 6.402-6.8492V48.3c-2.169 2.1165-5.121 3.3394-8.578 3.3394-7.854 0-13.698-6.1261-13.698-14.1452v.0059Zm22.276 0c0-3.7862-3.01-6.6258-6.961-6.6258-3.951 0-6.961 2.8396-6.961 6.6258 0 3.7861 2.952 6.6257 6.961 6.6257 4.01 0 6.961-2.8984 6.961-6.6257Z"
		/>
	</g>
	<defs>
		<filter
				id="a"
				width="67.3976"
				height="62.0884"
				x=".318054"
				y="9.95581"
				color-interpolation-filters="sRGB"
				filterUnits="userSpaceOnUse"
		>
			<feFlood flood-opacity="0" result="BackgroundImageFix" />
			<feColorMatrix in="SourceAlpha" result="hardAlpha" values="0 0 0 0 0 0 0 0 0 0 0 0 0 0 0 0 0 0 127 0" />
			<feOffset dy="3" />
			<feGaussianBlur stdDeviation="2" />
			<feColorMatrix values="0 0 0 0 0 0 0 0 0 0 0 0 0 0 0 0 0 0 0.5 0" />
			<feBlend in2="BackgroundImageFix" result="effect1_dropShadow_2079_7246" />
			<feBlend in="SourceGraphic" in2="effect1_dropShadow_2079_7246" result="shape" />
		</filter>
		<filter
				id="b"
				width="311.857"
				height="62.3425"
				x="75.4487"
				y="12.3256"
				color-interpolation-filters="sRGB"
				filterUnits="userSpaceOnUse"
		>
			<feFlood flood-opacity="0" result="BackgroundImageFix" />
			<feColorMatrix in="SourceAlpha" result="hardAlpha" values="0 0 0 0 0 0 0 0 0 0 0 0 0 0 0 0 0 0 127 0" />
			<feOffset dy="7" />
			<feGaussianBlur stdDeviation="2" />
			<feColorMatrix values="0 0 0 0 0 0 0 0 0 0 0 0 0 0 0 0 0 0 0.8 0" />
			<feBlend in2="BackgroundImageFix" result="effect1_dropShadow_2079_7246" />
			<feBlend in="SourceGraphic" in2="effect1_dropShadow_2079_7246" result="shape" />
		</filter>
	</defs>
</svg>