<svg xmlns="http://www.w3.org/2000/svg" width="48" height="48" fill="none" viewBox="0 0 48 48"><g clip-path="url(#a)"><path fill="#fff" d="M0 0h48v48H0z"/><path fill="#1414D2" fill-rule="evenodd" d="M10.653 6.134c17.309 0 31.39 14.135 31.39 31.509 0 3.524-.595 7.03-1.748 10.357H48V0H0v8.006l.037-.013a31.1 31.1 0 0 1 10.616-1.859M0 21.068c1.952-2.777 2.234-5.966.52-7.522a3 3 0 0 0-.52-.38zm10.055-10.115c-1.726-1.98-4.6-2.66-7.937-2.182-.091.013-.186.026-.27.04q-.383.066-.773.153C.559 9.084.206 9.2 0 9.28v1q.492-.39 1.01-.738a13.4 13.4 0 0 1 1.934-.274A25 25 0 0 0 0 11.255v.769l.03.017s2.447-1.936 4.39-2.77q.705.05 1.345.197C2.861 10.7.716 12.228.568 12.335c.298.177.57.398.605.427.038-.023 2.854-1.784 5.953-2.84.42.193.827.432 1.179.702-3.375.949-6.62 2.642-6.62 2.642q.276.32.484.689l.058-.023c3.454-1.478 7.124-2.236 7.124-2.236q.431.59.704 1.316s-3.294.377-7.53 1.735c.186.586.237 1.026.238 1.03 0 0 3.994-.894 7.678-.993a9.4 9.4 0 0 1-.052 1.938c-2.182-.115-7.378.162-7.582.177 0 0-.02.749-.214 1.454 0 0 3.797.121 7.251.765a17 17 0 0 1-1.012 2.44c-2.302-.692-5.795-1.532-6.714-1.743a11.3 11.3 0 0 1-.907 1.76s4.269 1.862 5.907 2.773h.003v.002C6.41 25.415 5 26.904 5 26.904q-.613-.457-1.16-.858L0 23.362v3.53l2.214 2.585A27 27 0 0 1 0 31.081v2.106l.081-.053a32 32 0 0 0 2.984-2.303c7.637-6.645 10.767-15.545 6.99-19.878m9.403.368c-3.624-4.879-9.298-4.182-10.99-3.945-1.858.26-3.263.667-3.263.667.415.039.98.113 1.388.194.301-.07 2.91-.665 4.806-.417h.005c-1.393.152-3.294.727-3.493.787l-.004.003.006.002c.068.02.616.186 1.319.599.205-.055 2.786-.74 5.248-.788 0 0 .909.404 1.785 1.005-3.18-.012-5.813.599-5.884.615.372.33.743.728 1.075 1.206 3.487-.522 6.495-.296 6.495-.296s.41.499.593.767c.232.338.47.758.654 1.126-3.558-.416-6.962-.118-6.964-.118.235.606.393 1.254.48 1.935.394-.003 3.408.003 7.246.694.123.88.135 1.823.038 2.817-.652-.17-3.803-.956-7.242-1.297-.07.859-.233 1.754-.484 2.671.385.09 4.633 1.103 7.013 2.067a23 23 0 0 1-1.415 3.52c-1.916-.943-6.615-2.78-6.615-2.78a25 25 0 0 1-1.716 3.177s4.03 2.299 5.97 3.572a36.5 36.5 0 0 1-3.024 3.75c-1.407-1.261-4.927-3.988-5.192-4.194-1.136 1.351-2.565 2.773-2.994 3.193l4.224 4.843-.12.107a39 39 0 0 1-2.732 2.042c-.722.491-1.318.871-1.524 1.004-.05-.075-2.815-4.49-3.23-5.193q-.456.336-.917.652v9.077c.498-.24.995-.487 1.492-.751 2.382-1.173 4.692-2.66 6.843-4.38a43 43 0 0 0 4.251-3.86 38 38 0 0 0 4.398-5.408c4.659-6.876 5.907-14.046 2.474-18.665m7.403 1.656a7 7 0 0 0-.802-.935 9 9 0 0 0-.798-.688c-3.006-2.266-8.537-3.399-8.537-3.399.528.281.967.57.97.572.027.006 2.257.565 4.235 1.533 0 0-1.8-.409-2.954-.568.477.42.93.901 1.328 1.405 0 0 3.67.67 5.281 1.553 0 0 .772.794 1.402 2.186-2.515-1.021-5.364-1.553-5.364-1.553.378.847.65 1.754.815 2.698 0 0 3.132.767 5.485 1.897.204 1.117.278 2.273.235 3.442a43 43 0 0 0-5.539-2.27 18.6 18.6 0 0 1-.574 3.73s3.795 1.694 5.5 2.723a26.7 26.7 0 0 1-1.54 4.403c-2.598-1.688-5.347-3.188-5.347-3.188-.69 1.658-2.39 4.374-2.39 4.374l.003.001c.042.03 2.87 1.97 5.038 3.693a42 42 0 0 1-3.614 4.691c-.456-.436-4.624-4.136-4.624-4.136a45 45 0 0 1-4.192 4.24l4.019 4.547c-2.607 2.146-5.204 3.773-5.204 3.773l-3.352-4.759S3.982 44.736 0 46.621V48h13.075C27.67 36.958 32.848 21.17 26.861 12.977M25.934 48c3.407-3.81 6.31-8.294 8.055-13.093 1.513-4.165 2.337-9.25.997-13.774-.09-.299-.19-.6-.308-.902-.428-1.107-.984-2.072-1.588-2.83a30.4 30.4 0 0 0-5.497-4.825c.297.383.568.778.804 1.178 0 0 2.462 1.826 3.891 3.682-1.833-1.307-2.872-1.835-3.006-1.902l-.016-.008c.697 1.717.906 3.139.907 3.141 0 0 2.175 1.135 4.134 2.831a17 17 0 0 1 .364 3.825c-1.973-1.736-4.258-3.093-4.258-3.093a23.4 23.4 0 0 1-.568 4.408s2.157 1.366 4.259 3.281c0 0-.604 2.714-1.578 4.848a53 53 0 0 0-4.138-3.453s-1.001 2.61-2.623 5.231c2.019 1.757 3.917 3.578 3.917 3.578a43 43 0 0 1-3.887 5.142l-3.613-3.596a48 48 0 0 1-4.785 5.102L18.504 48zm6.427 0h1.803c5.134-7.584 5.392-14.306 5.392-15.594 0-2.433-.408-4.668-1.091-6.438 0 0-1.066-2.75-2.725-5.198.181.547.529 1.655.721 2.646l.033.178c.327.545 1.8 3.144 1.998 6.002v.009s-1.041-1.459-1.814-2.38a24 24 0 0 1-.56 4.66s1.543 1.787 2.234 2.94c0 0-.47 2.514-1.477 4.923-1.024-1.49-2.332-2.936-2.332-2.936a38.5 38.5 0 0 1-2.81 5.556s1.955 2.288 2.384 2.94A40 40 0 0 1 32.36 48zm3.427 0c.953-1.783 2.009-4 2.716-5.884v.003c.024.06.376.992.638 1.96a35.6 35.6 0 0 0 1.15-5.991c-.067-.267-.212-.702-.294-.966 0 0 .349-1.75.487-3.747.188 1.37.285 2.764.285 4.171 0 2.44-.288 4.833-.846 7.145A35 35 0 0 1 38.91 48h-3.12z" clip-rule="evenodd"/></g><defs><clipPath id="a"><path fill="#fff" d="M0 0h48v48H0z"/></clipPath></defs></svg>